# xmcd
#
# Track frame offsets:
#	182
#	16430
#	28695
#	41260
#	54070
#	69390
#	83337
#	98982
#	110700
#	125257
#	137727
#	156927
#	168625
#	183205
#	198140
#	210157
#	225642
#	235952
#	251305
#	262110
#	273380
#
# Disc length: 3848 seconds
#
# Revision: 4
# Processed by: cddbd v1.5.2PL0 Copyright (c) Steve Scherf et al.
# Submitted via: EasyCDDAExtractor 15.3.0.1
#
DISCID=0f0f0615
DTITLE=Cher - Half Breed, Dark Lady
DYEAR=1993
DGENRE=Pop
TTITLE0=My Love
TTITLE1=Two People Clinging To A Thread
TTITLE2=Half Breed
TTITLE3=The Greatest Song I Ever Heard
TTITLE4=How Can You Mend A Broken Heart
TTITLE5=Carousel Man
TTITLE6=David's Song
TTITLE7=Melody
TTITLE8=The Long And Winding Road
TTITLE9=This God-Forsaken Day
TTITLE10=Chastity's Sun
TTITLE11=Train Of Thought
TTITLE12=I Saw A Man And He Danced With His Wife
TTITLE13=Make The Man Love Me
TTITLE14=Just What I've Been Lookin' For
TTITLE15=Dark Lady
TTITLE16=Miss Subway Of 1952
TTITLE17=Dixie Girl
TTITLE18=Rescue Me
TTITLE19=What'll I Do
TTITLE20=Apples Don't Fall Far From The Tree
EXTD=
EXTT0=
EXTT1=
EXTT2=
EXTT3=
EXTT4=
EXTT5=
EXTT6=
EXTT7=
EXTT8=
EXTT9=
EXTT10=
EXTT11=
EXTT12=
EXTT13=
EXTT14=
EXTT15=
EXTT16=
EXTT17=
EXTT18=
EXTT19=
EXTT20=
PLAYORDER=
